<svg viewBox="0 0 200 260" role="img" xmlns="http://www.w3.org/2000/svg">
  <title>FluxoConta</title>
  <defs>
    <linearGradient id="fcShieldGrad" x1="0" y1="0" x2="0" y2="1">
      <stop offset="0%" stop-color="#1535c4"/>
      <stop offset="100%" stop-color="#0b1966"/>
    </linearGradient>
    <linearGradient id="fcGloss" x1="0" y1="0" x2="0" y2="1">
      <stop offset="0%" stop-color="#ffffff" stop-opacity="0.14"/>
      <stop offset="100%" stop-color="#ffffff" stop-opacity="0"/>
    </linearGradient>
    <linearGradient id="fcBar1" x1="0" y1="0" x2="0" y2="1">
      <stop offset="0%" stop-color="#4f83ff"/>
      <stop offset="100%" stop-color="#2a55cc"/>
    </linearGradient>
    <linearGradient id="fcBar2" x1="0" y1="0" x2="0" y2="1">
      <stop offset="0%" stop-color="#6fa0ff"/>
      <stop offset="100%" stop-color="#3b6de0"/>
    </linearGradient>
    <linearGradient id="fcBar3" x1="0" y1="0" x2="0" y2="1">
      <stop offset="0%" stop-color="#96bfff"/>
      <stop offset="100%" stop-color="#5088f0"/>
    </linearGradient>
    <linearGradient id="fcBar4" x1="0" y1="0" x2="0" y2="1">
      <stop offset="0%" stop-color="#bdd5ff"/>
      <stop offset="100%" stop-color="#74a6ff"/>
    </linearGradient>
    <clipPath id="fcShieldMask">
      <path d="M100,6 L188,46 L188,138 Q188,216 100,248 Q12,216 12,138 L12,46 Z"/>
    </clipPath>
  </defs>

  <path d="M100,6 L188,46 L188,138 Q188,216 100,248 Q12,216 12,138 L12,46 Z" fill="url(#fcShieldGrad)"/>
  <path d="M100,14 L180,52 L180,138 Q180,210 100,240 Q20,210 20,138 L20,52 Z" fill="none" stroke="#3a64f8" stroke-width="1.2" opacity="0.7"/>
  <path d="M100,14 L180,52 L180,100 Q140,88 100,90 Q60,88 20,100 L20,52 Z" fill="url(#fcGloss)" clip-path="url(#fcShieldMask)"/>

  <rect x="42" y="148" width="22" height="24" rx="5" ry="5" fill="url(#fcBar1)"/>
  <rect x="70" y="128" width="22" height="44" rx="5" ry="5" fill="url(#fcBar2)"/>
  <rect x="98" y="104" width="22" height="68" rx="5" ry="5" fill="url(#fcBar3)"/>
  <rect x="126" y="80" width="22" height="92" rx="5" ry="5" fill="url(#fcBar4)"/>

  <polyline points="53,144 81,122 109,98 137,74" fill="none" stroke="#ffffff" stroke-width="2.5" stroke-linecap="round" stroke-linejoin="round" opacity="0.9"/>
  <circle cx="53" cy="144" r="4.5" fill="#ffffff" opacity="0.9"/>
  <circle cx="81" cy="122" r="4.5" fill="#ffffff" opacity="0.9"/>
  <circle cx="109" cy="98" r="4.5" fill="#ffffff" opacity="0.9"/>
  <circle cx="137" cy="74" r="5.5" fill="#ffffff"/>
  <path d="M131,68 L143,68 L137,60 Z" fill="#ffffff"/>
</svg>
